<svg aria-hidden="true" style="position: absolute; width: 0; height: 0; overflow: hidden;" version="1.1"
  xmlns="http://www.w3.org/2000/svg"
  xmlns:xlink="http://www.w3.org/1999/xlink">
  <defs>
    <symbol id="icon-search" viewBox="0 0 32 32">
      <path d="M24.662 21.782l7.11 6.701c0.318 0.332 0.302 0.841-0.035 1.156l-1.244 1.173c-0.167 0.159-0.394 0.248-0.631 0.248s-0.464-0.089-0.631-0.248l-7.11-6.701c-0.197-0.185-0.375-0.387-0.533-0.603l-1.333-1.675c-2.206 1.66-4.945 2.564-7.767 2.563-5.816 0.019-10.871-3.762-12.171-9.106s1.502-10.822 6.746-13.194 11.532-1.001 15.14 3.298c3.608 4.3 3.574 10.382-0.082 14.645l1.777 1.156c0.278 0.168 0.534 0.364 0.764 0.586zM3.6 12.669c0 4.626 3.979 8.376 8.887 8.376 2.357 0 4.618-0.882 6.284-2.453s2.603-3.701 2.603-5.923c0-4.626-3.979-8.376-8.887-8.376s-8.887 3.75-8.887 8.376z"></path>
    </symbol>
    <symbol id="icon-linkedin-icon" viewBox="0 0 32 32">
      <path d="M7.163 32h-6.634v-21.364h6.634v21.364zM3.842 7.721c-2.121 0-3.842-1.757-3.842-3.879 0-1.019 0.405-1.996 1.125-2.717s1.698-1.125 2.717-1.125c1.019 0 1.996 0.405 2.717 1.125s1.125 1.698 1.125 2.717c0 2.121-1.721 3.879-3.842 3.879zM31.993 32h-6.62v-10.4c0-2.478-0.050-5.657-3.449-5.657-3.449 0-3.978 2.693-3.978 5.479v10.579h-6.627v-21.364h6.363v2.914h0.093c0.886-1.679 3.049-3.45 6.277-3.45 6.714 0 7.948 4.421 7.948 10.164v11.736h-0.007z"></path>
    </symbol>
    <symbol id="icon-twitter-icon" viewBox="0 0 32 32">
      <path d="M28.711 9.482c0.020 0.284 0.020 0.569 0.020 0.853 0 8.67-6.599 18.66-18.66 18.66-3.716 0-7.168-1.076-10.071-2.944 0.528 0.061 1.036 0.081 1.584 0.081 3.066 0 5.888-1.036 8.142-2.802-2.883-0.061-5.3-1.949-6.132-4.548 0.406 0.061 0.812 0.102 1.239 0.102 0.589 0 1.178-0.081 1.726-0.223-3.005-0.609-5.259-3.249-5.259-6.437v-0.081c0.873 0.487 1.888 0.792 2.964 0.832-1.766-1.178-2.924-3.188-2.924-5.462 0-1.218 0.325-2.335 0.893-3.31 3.228 3.98 8.081 6.579 13.523 6.863-0.101-0.487-0.162-0.995-0.162-1.502 0-3.614 2.924-6.558 6.558-6.558 1.888 0 3.594 0.792 4.792 2.071 1.482-0.284 2.904-0.833 4.162-1.584-0.487 1.523-1.523 2.802-2.883 3.614 1.32-0.142 2.599-0.508 3.777-1.015-0.893 1.299-2.010 2.457-3.289 3.391z"></path>
    </symbol>
    <symbol id="icon-facebook-icon" viewBox="0 0 32 32">
      <path d="M23.446 18l0.889-5.791h-5.557v-3.758c0-1.584 0.776-3.129 3.265-3.129h2.526v-4.931c0 0-2.293-0.391-4.484-0.391-4.576 0-7.567 2.774-7.567 7.795v4.414h-5.087v5.791h5.087v14h6.261v-14h4.668z"></path>
    </symbol>
    <symbol id="icon-instagram-icon" viewBox="0 0 34 32">
      <path d="M17.337 7.796c-4.541 0-8.204 3.663-8.204 8.204s3.663 8.204 8.204 8.204c4.541 0 8.204-3.663 8.204-8.204s-3.663-8.204-8.204-8.204zM17.337 21.334c-2.935 0-5.334-2.392-5.334-5.334s2.392-5.334 5.334-5.334c2.942 0 5.334 2.392 5.334 5.334s-2.399 5.334-5.334 5.334zM27.791 7.46c0 1.064-0.857 1.914-1.914 1.914-1.064 0-1.914-0.857-1.914-1.914s0.857-1.914 1.914-1.914c1.057 0 1.914 0.857 1.914 1.914zM33.225 9.402c-0.121-2.563-0.707-4.834-2.585-6.705-1.871-1.871-4.141-2.456-6.705-2.585-2.642-0.15-10.561-0.15-13.203 0-2.556 0.121-4.827 0.707-6.705 2.578s-2.456 4.141-2.585 6.705c-0.15 2.642-0.15 10.561 0 13.203 0.121 2.563 0.707 4.834 2.585 6.705s4.141 2.456 6.705 2.585c2.642 0.15 10.561 0.15 13.203 0 2.563-0.121 4.834-0.707 6.705-2.585 1.871-1.871 2.456-4.141 2.585-6.705 0.15-2.642 0.15-10.554 0-13.196zM29.812 25.433c-0.557 1.4-1.635 2.478-3.042 3.042-2.106 0.835-7.105 0.643-9.433 0.643s-7.333 0.186-9.433-0.643c-1.4-0.557-2.478-1.635-3.042-3.042-0.835-2.106-0.643-7.105-0.643-9.433s-0.186-7.333 0.643-9.433c0.557-1.4 1.635-2.478 3.042-3.042 2.106-0.835 7.105-0.643 9.433-0.643s7.333-0.186 9.433 0.643c1.4 0.557 2.478 1.635 3.042 3.042 0.835 2.106 0.643 7.105 0.643 9.433s0.193 7.333-0.643 9.433z"></path>
    </symbol>
    <symbol id="icon-mobile" viewBox="0 0 32 32">
      <path fill="#dd3b86" style="fill: var(--color1, #dd3b86)" d="M25.023 29.322c0 1.345-1.083 2.428-2.428 2.428h-14.503c-1.345 0-2.428-1.083-2.428-2.428v-26.644c0-1.345 1.083-2.428 2.428-2.428h14.47c1.345 0 2.428 1.083 2.428 2.428v26.644z"></path>
      <path fill="none" stroke="#3d3d3d" style="stroke: var(--color2, #3d3d3d)" stroke-linejoin="round" stroke-linecap="butt" stroke-miterlimit="10" stroke-width="0.5" d="M25.023 29.322c0 1.345-1.083 2.428-2.428 2.428h-14.503c-1.345 0-2.428-1.083-2.428-2.428v-26.644c0-1.345 1.083-2.428 2.428-2.428h14.47c1.345 0 2.428 1.083 2.428 2.428v26.644z"></path>
      <path fill="#e875ae" style="fill: var(--color3, #e875ae)" d="M26.336 29.322c0 1.345-1.083 2.428-2.428 2.428h-14.503c-1.345 0-2.428-1.083-2.428-2.428v-26.644c0-1.345 1.083-2.428 2.428-2.428h14.47c1.345 0 2.428 1.083 2.428 2.428v26.644z"></path>
      <path fill="none" stroke="#3d3d3d" style="stroke: var(--color2, #3d3d3d)" stroke-linejoin="round" stroke-linecap="butt" stroke-miterlimit="10" stroke-width="0.5" d="M26.336 29.322c0 1.345-1.083 2.428-2.428 2.428h-14.503c-1.345 0-2.428-1.083-2.428-2.428v-26.644c0-1.345 1.083-2.428 2.428-2.428h14.47c1.345 0 2.428 1.083 2.428 2.428v26.644z"></path>
      <path fill="#fff" style="fill: var(--color4, #fff)" d="M9.602 6.156h14.438v20.344h-14.438v-20.344z"></path>
      <path fill="none" stroke="#3d3d3d" style="stroke: var(--color2, #3d3d3d)" stroke-linejoin="round" stroke-linecap="butt" stroke-miterlimit="10" stroke-width="0.5" d="M9.602 6.156h14.438v20.344h-14.438v-20.344z"></path>
      <path fill="none" stroke="#3d3d3d" style="stroke: var(--color2, #3d3d3d)" stroke-linejoin="round" stroke-linecap="butt" stroke-miterlimit="10" stroke-width="0.5" d="M13.867 3.859h6.234"></path>
      <path fill="#3d3d3d" style="fill: var(--color2, #3d3d3d)" d="M18.002 29.191c0 0.598-0.485 1.083-1.083 1.083s-1.083-0.485-1.083-1.083c0-0.598 0.485-1.083 1.083-1.083s1.083 0.485 1.083 1.083z"></path>
    </symbol>
  </defs>
</svg>
